<svg xmlns="http://www.w3.org/2000/svg" viewBox="0 0 94 24" fill="none" focusable="false" aria-hidden="true">
<path d="M15.4426 21.624C15.0828 21.7438 14.8025 21.8248 14.534 21.8859C14.2066 21.9603 13.8408 22.0197 13.3844 22.0729C13.1127 22.1042 12.8394 22.1188 12.566 22.1341L12.2397 22.1539C11.2017 22.1511 10.1661 21.9989 9.16225 21.7015C7.81319 21.3001 6.58377 20.6392 5.50843 19.7368C4.29465 18.7194 3.3571 17.4584 2.72177 15.9893C2.39785 15.2391 2.1667 14.4402 2.03419 13.6146C1.89927 12.7716 1.86475 11.9943 1.92891 11.2385C2.06211 9.669 2.51745 8.20716 3.28247 6.89302C4.07433 5.53438 5.14335 4.40714 6.46103 3.54333C7.48262 2.87302 8.61273 2.39596 9.8195 2.12595C10.7316 1.92097 11.6483 1.83233 12.5381 1.86569C13.4499 1.89872 14.353 2.04537 15.2223 2.30215L15.5392 2.39596L16.6606 0.834058L16.0664 0.634609C14.9213 0.250272 13.7331 0.0379551 12.5353 0.00355535C11.8819 -0.0158832 11.2274 0.0476967 10.6103 0.113727C9.61758 0.219725 8.63082 0.476138 7.59354 0.897645C5.53598 1.73504 3.81107 3.04886 2.46688 4.80154C1.46861 6.1025 0.761155 7.57892 0.362979 9.19016C0.147835 10.0613 0.0286029 10.9755 0 12.0409L0.0422003 12.5517C0.0714887 12.9266 0.101135 13.3012 0.149929 13.673C0.300908 14.8214 0.644016 15.9628 1.17016 17.0651C2.06869 18.9505 3.38952 20.5218 5.0956 21.7355C6.79227 22.943 8.69535 23.6765 10.7522 23.9156C11.2354 23.9719 11.7205 24 12.2031 24C12.6417 24 13.0786 23.9768 13.5109 23.9305C14.3844 23.8364 15.2742 23.6345 16.1557 23.3304L16.5651 23.1893L15.4571 21.6192L15.4426 21.624Z" fill="#4F9E32"/>
<path d="M21.1706 5.17921C21.1706 5.17921 21.0701 5.12856 21.0338 5.12022C21.0106 5.11488 20.9126 5.10344 20.8719 5.10148C19.6585 5.043 18.808 5.51837 17.6713 6.55281L15.8683 8.23044C13.4687 10.7684 12.287 12.2736 11.6521 13.0823C11.4892 13.2897 11.3424 13.4763 11.2507 13.5799C11.2026 13.5124 11.128 13.3759 11.0147 13.0989L9.54183 9.81771L9.49058 9.68565C9.39085 9.42018 9.23987 9.01848 8.68653 9.01848C8.04602 9.01848 7.77021 9.17415 7.30196 9.47125C7.0373 9.63421 6.675 9.85732 6.675 10.3521C6.675 11.3667 8.14156 15.9065 8.64747 16.842L8.72942 16.9935C8.85252 17.2252 8.98013 17.465 9.21514 17.6109C9.43274 17.7475 9.61055 17.7475 10.3577 17.7475C10.6859 17.7475 11.0579 17.7475 11.4132 17.6008C11.6702 17.4643 12.0419 17.1047 12.1545 16.8955L16.3554 11.6288L19.8216 7.44788C19.8216 7.44788 20.8523 6.26432 21.24 5.91413C21.3455 5.81884 21.4189 5.70113 21.4189 5.56423C21.4189 5.39918 21.3262 5.25499 21.1706 5.17921Z" fill="#4F9E32"/>
<path d="M74.9194 4.89148V2.93155H77.0637V4.89148H74.9194ZM74.9194 14.8198V5.9037H77.0637V14.8198H74.9194Z" fill="#5A5B5C"/>
<path d="M79.8537 14.8194V7.79873H79.0955V5.90334H79.8537C80.0145 3.38111 81.7236 2.69009 82.7873 2.69009H83.368V4.79467C82.2715 4.79467 82.0459 5.08399 81.9972 5.90334H83.2552V7.79872H81.9972V14.8194L79.8537 14.8194Z" fill="#5A5B5C"/>
<path d="M85.5421 18.2499H24.2694V18.7537H85.3237L85.5421 18.2499Z" fill="#5A5B5C"/>
<path d="M86.1351 18.7539L88.1967 14.0005L84.9239 5.9037H87.3745L89.4059 11.6229L91.5662 5.9037H94L88.4412 18.7539L86.1351 18.7539Z" fill="#5A5B5C"/>
<path d="M24.2694 14.8198V5.9037H26.2361V6.69079H26.2682C26.8324 5.85548 27.2999 5.59844 28.3156 5.59844H28.364V7.67076C27.0743 7.71897 26.4133 8.40963 26.4133 9.74308V14.8198L24.2694 14.8198Z" fill="#5A5B5C"/>
<path d="M31.4308 11.3176C31.5924 12.1051 32.5757 13.1492 33.8974 13.1492C34.784 13.1492 35.5258 12.7953 35.9609 12.0086H38.2179C37.6373 13.8076 35.7997 15.1091 33.8974 15.1091C31.2053 15.1091 29.1742 13.0201 29.1742 10.3859C29.1742 7.75087 31.1569 5.59844 33.8814 5.59844C36.4767 5.59844 38.5082 7.63849 38.5082 10.2412C38.5082 10.5787 38.4594 10.9319 38.3787 11.3176L31.4308 11.3176ZM36.3156 9.59841C36.106 8.31318 35.2194 7.55836 33.8814 7.55836C32.7045 7.55836 31.7051 8.23306 31.3664 9.59841H36.3156Z" fill="#5A5B5C"/>
<path d="M46.0599 14.8198V10.3377C46.0599 8.52238 45.4633 7.55837 44.254 7.55837C43.5934 7.55837 42.4001 7.99198 42.4001 9.9519V14.8198H40.2559V5.90371H42.2393V6.67484C42.9487 5.98383 43.6741 5.59844 44.7059 5.59844C45.8664 5.59844 48.2035 6.32135 48.2035 9.55055V14.8198L46.0599 14.8198Z" fill="#5A5B5C"/>
<path d="M49.8551 10.3695C49.8551 7.7991 51.9346 5.59844 54.6267 5.59844C57.3348 5.59844 59.3663 7.76719 59.3663 10.3376C59.3663 13.0042 57.3676 15.1091 54.6267 15.1091C51.9993 15.1091 49.8551 12.9404 49.8551 10.3695ZM57.222 10.3859C57.222 8.92372 56.1263 7.55837 54.6107 7.55837C53.1759 7.55837 51.9993 8.8755 51.9993 10.3695C51.9993 11.8636 53.0951 13.1492 54.6267 13.1492C56.1423 13.1492 57.222 11.8636 57.222 10.3859Z" fill="#5A5B5C"/>
<path d="M68.2936 14.8198L66.6172 9.03647H66.5844L64.892 14.8198H63.57L60.346 5.9037H62.635L64.2634 11.3495H64.2954L65.7622 5.9037H67.4714L68.9222 11.3495H68.9542L70.5986 5.9037H72.8876L69.6156 14.8198H68.2936Z" fill="#5A5B5C"/>
</svg>